<svg xmlns="http://www.w3.org/2000/svg" viewBox="0 0 100 100" width="100" height="100">
	<style>
		tspan { white-space:pre }
		.shp0 { fill: #b71414 } 
		.shp1 { fill: #ffffff } 
	</style>
	<path id="Shape 1 copy" class="shp0" d="M0 50L50 50L50 100L0 100L0 50ZM25 0L25 0C38.83 0 50 11.17 50 25L50 25C50 38.83 38.83 50 25 50L25 50C11.17 50 0 38.83 0 25L0 25C0 11.17 11.17 0 25 0ZM75 50L75 50C88.83 50 100 61.17 100 75L100 75C100 88.83 88.83 100 75 100L75 100C61.17 100 50 88.83 50 75L50 75C50 61.17 61.17 50 75 50ZM0 24L100 24L100 75L0 75L0 24ZM25 0L76 0L76 100L25 100L25 0ZM50 0L100 0L100 50L50 50L50 0Z" />
	<path id="Layer" fill-rule="evenodd" class="shp1" d="M37.74 16.67L12.96 30.09L12.98 40.46L37.76 27.04L62.6 40.35L62.58 29.98L37.74 16.67ZM87.04 69.99L87.02 59.63L62.24 73.05L37.4 59.74L37.42 70.1L62.26 83.42L87.04 69.99ZM13.04 69.99L22.68 75.15L22.62 48.41L47.4 34.99L37.77 29.82L12.98 43.25L13.04 69.99ZM74.77 23.31L49.93 10L40.32 15.21L65.16 28.52L65.22 55.26L74.83 50.05L74.77 23.31ZM50.16 90L59.77 84.79L34.93 71.48L34.87 44.74L25.26 49.95L25.32 76.69L50.16 90ZM87.02 56.84L86.96 30.1L77.32 24.94L77.38 51.68L52.6 65.1L62.24 70.27L87.02 56.84Z" />
</svg>